<svg width="200" height="244" viewBox="0 0 200 244" fill="none" xmlns="http://www.w3.org/2000/svg">
<rect width="200" height="244" fill="#F5F5F5"/>
<g id="Duvidas">
<path d="M-44 -52C-44 -60.8365 -36.8366 -68 -28 -68H748C756.837 -68 764 -60.8366 764 -52V489C764 497.837 756.837 505 748 505H-28C-36.8366 505 -44 497.837 -44 489V-52Z" fill="white"/>
<g id="Frame 79">
<rect width="288" height="573" transform="translate(-44 -68)" fill="#E7E9F2"/>
<g id="Asset 3 1">
<g id="Layer 2">
<g id="OBJECTS">
<path id="Vector" d="M50.7523 39.1848C45.9038 49.8648 46.0883 62.3213 49.225 73.6175C50.25 77.1501 51.4904 80.7238 51.2751 84.3899C50.8548 90.2228 46.7136 94.9877 43.0746 99.537C24.7297 122.388 13.8976 150.37 12.0664 179.637C11.4617 189.68 12.0049 200.083 16.1667 209.233C24.4184 227.276 45.4425 236.621 65.257 236.96C85.0714 237.298 104.947 232.112 122.845 223.61C163.243 204.324 215.101 158.492 175.974 114.006C169.557 106.715 163.427 98.6025 161.9 88.9905C160.629 80.9702 162.546 72.8473 163.694 64.8168C165.201 54.3524 165.406 43.5081 162.392 33.3724C147.508 -16.7721 68.4449 0.274775 50.7523 39.1848Z" fill="#E7E9F2"/>
<path id="Vector_2" d="M60.6137 96.7335C56.5134 98.7155 50.1683 101.765 48.3642 105.976C46.3141 110.802 45.9655 111.819 47.1854 116.923C52.4644 138.93 56.9542 159.797 62.2948 181.793C64.7139 191.765 60.0807 228.118 61.1057 238.336C85.2049 239.63 149.784 239.681 149.712 238.664C148.175 215.302 150.081 166.78 153.023 151.592C156.416 134.031 145.673 91.7838 144.115 91.2292C132.676 87.1832 134.562 87.635 122.456 86.947C110.575 86.2692 95.5888 84.8931 83.6879 85.4785C73.6525 85.9714 69.6547 91.5681 60.6137 96.7335Z" fill="#FAFAFA"/>
<path id="Vector_3" d="M87.4496 237.576C90.9236 238.2 94.4476 238.503 97.977 238.479C100.95 238.479 104.127 238.911 107.08 238.479C109.134 238.18 111.161 237.709 113.138 237.072C114.665 236.61 116.592 236.138 117.781 235.019C118.263 234.567 117.535 233.838 117.064 234.289C115.813 235.47 113.599 235.891 112 236.343C110.16 236.94 108.264 237.346 106.342 237.555C103.748 237.719 101.032 237.432 98.428 237.422C94.8413 237.47 91.258 237.178 87.7264 236.549C87.0806 236.425 86.8038 237.411 87.4496 237.576Z" fill="#E8E5E2"/>
<path id="Vector_4" d="M92.6363 178.959C94.6399 180.177 96.5641 181.522 98.3972 182.985C100.447 184.402 102.545 185.747 104.691 187.02C106.563 188.231 108.523 189.298 110.554 190.214C111.579 190.615 112.359 190.758 113.117 189.937C113.568 189.454 112.851 188.725 112.4 189.208C111.128 190.574 103.348 185.018 102.026 184.176C99.043 182.266 96.2855 179.688 93.1591 178.076C92.5646 177.778 92.052 178.661 92.6363 178.959Z" fill="#E8E5E2"/>
<path id="Vector_5" d="M92.6567 196.006C97.9205 202.584 105.407 207.005 113.701 208.432C114.347 208.545 114.624 207.559 113.978 207.405C105.857 206.013 98.5288 201.683 93.3845 195.236C92.9744 194.722 92.2466 195.451 92.6567 195.965V196.006Z" fill="#E8E5E2"/>
<path id="Vector_6" d="M90.3607 97.8323C94.061 100.032 98.2557 101.261 102.556 101.405C106.857 101.548 111.124 100.602 114.962 98.6539C115.546 98.3561 115.024 97.4729 114.439 97.7707C110.758 99.6337 106.667 100.535 102.546 100.392C98.4244 100.248 94.4058 99.0638 90.863 96.9492C90.7462 96.8825 90.608 96.8645 90.478 96.8989C90.3481 96.9334 90.2369 97.0176 90.1684 97.1334C90.0998 97.2492 90.0794 97.3873 90.1116 97.5181C90.1437 97.6488 90.2258 97.7617 90.3402 97.8323H90.3607Z" fill="#E8E5E2"/>
<path id="Vector_7" d="M100.376 107.485L108.904 108.933C109.55 109.036 109.827 108.05 109.181 107.906L100.642 106.469C100.007 106.356 99.7195 107.352 100.376 107.496V107.485Z" fill="#E8E5E2"/>
<path id="Vector_8" d="M85.6661 83.209C85.6661 84.051 83.8723 84.698 83.6877 85.5093C89.0386 88.7338 90.1969 94.9672 103.082 94.9775C119.483 94.9775 123.327 88.1587 122.456 86.9778C122.005 86.3719 121.328 85.9508 120.857 85.386C120.026 84.3591 121.103 67.6203 120.375 63.0505C120.313 62.6705 96.2448 66.8296 86.1479 64.4574C86.7117 69.6331 87.3267 83.4554 85.6661 83.209Z" fill="#F29E91"/>
<path id="Vector_9" d="M84.4257 62.8349C85.6558 66.7064 87.0191 70.7627 89.9815 73.5456C94.297 77.5917 100.898 83.6814 106.813 83.8149C110.77 83.8765 115.014 78.0333 118.007 75.4146C121 72.796 121.666 68.0516 122.015 63.9439C122.384 59.559 123.778 56.7555 124.147 52.35C124.731 45.4594 125.705 30.4663 114.696 24.161C108.422 20.5668 98.4486 22.5693 91.6216 24.9209C74.0418 31.0106 80.6535 50.8815 84.4257 62.8349Z" fill="#FFAF9D"/>
<path id="Vector_10" d="M86.6297 33.7525C98.7254 36.0733 107.602 36.0938 119.514 32.9823C122.035 42.4607 122.22 50.4399 123.04 55.5745C124.895 51.5798 125.736 51.9906 126.494 50.4399C127.253 48.8893 126.638 34.3686 125.982 31.4316C128.944 29.3778 128.186 25.2701 127.171 21.7991C125.941 17.6093 121.595 14.9393 117.269 14.3539C112.943 13.7686 108.576 14.8571 104.343 15.9354L92.042 19.0778C88.6824 20.1024 85.1996 20.6655 81.6889 20.7516C78.1729 20.6797 74.5134 19.5501 72.166 16.952C72.2788 22.8671 74.9029 28.3406 80.018 31.3905C77.9679 39.0103 77.6604 51.6722 81.2788 53.264C88.157 56.2831 85.7378 33.5881 86.6297 33.7525Z" fill="#312553"/>
<path id="Vector_11" d="M85.9222 55.9442V53.7671C85.6257 51.4555 84.539 49.3182 82.8471 47.7186C82.4696 47.3789 82.0281 47.1183 81.5486 46.9522C81.0691 46.786 80.5613 46.7177 80.055 46.7512C79.5488 46.7847 79.0543 46.9193 78.6008 47.1472C78.1472 47.3751 77.7438 47.6915 77.4142 48.078C76.3998 49.5831 76.0067 51.4234 76.3174 53.2126C76.612 54.9859 77.1394 56.7124 77.8858 58.3472C78.4398 60.0102 79.2908 61.5586 80.3972 62.917C81.535 64.098 83.2263 64.6525 84.4974 63.7591C86.5168 62.3214 86.3528 58.7374 85.9222 55.9442Z" fill="#FFAF9D"/>
<path id="Vector_12" d="M128.196 48.4169C127.874 47.6503 127.354 46.9837 126.689 46.4863C125.049 45.3875 123.296 46.9689 121.83 48.3964C118.693 51.4771 119.954 64.0261 122.014 64.0158C125.028 64.2109 126.299 61.4691 127.919 58.5013C128.725 56.9512 129.168 55.238 129.216 53.491C129.264 51.744 128.915 50.0089 128.196 48.4169Z" fill="#FFAF9D"/>
<path id="Vector_13" d="M104.906 48.9818C105.008 51.9501 105.543 54.8875 106.495 57.7003C106.897 58.8429 107.366 59.9608 107.899 61.0481C108.484 62.2188 109.488 63.1944 108.104 64.5807C107.377 65.3098 105.685 65.5152 104.783 65.6076C104.127 65.6076 104.117 66.6345 104.783 66.6345C106.833 66.4908 110.585 65.5255 110.114 62.9787C109.764 62.1242 109.32 61.3114 108.791 60.5552C108.162 59.2881 107.634 57.9729 107.213 56.6221C106.453 54.153 106.023 51.5945 105.931 49.0126C105.931 48.3553 104.906 48.3553 104.906 49.0126V48.9818Z" fill="#D37A71"/>
<path id="Vector_14" d="M98.8484 70.1054C101.888 71.1894 105.146 71.5171 108.34 71.0604C108.997 70.968 108.72 70.0335 108.074 70.0335C105.058 70.4387 101.988 70.1111 99.1252 69.0785C98.4999 68.8628 98.2334 69.8486 98.8484 70.1054Z" fill="#D37A71"/>
<path id="Vector_15" d="M101.739 73.597L104.814 74.1002C105.46 74.2132 105.737 73.2171 105.091 73.0733L102.016 72.5599C101.37 72.4572 101.093 73.443 101.739 73.5868V73.597Z" fill="#D37A71"/>
<path id="Vector_16" d="M82.4474 50.4707C74.7901 46.63 79.9975 63.2867 82.9189 62.1468C83.5237 61.9106 83.2572 60.9247 82.6421 61.1199C81.4633 61.582 76.83 48.7968 81.9246 51.323C82.5191 51.6106 83.0419 50.7274 82.4474 50.4296V50.4707Z" fill="#D37A71"/>
<path id="Vector_17" d="M123.655 50.4502C124.906 50.7275 125.5 51.3334 125.439 52.2884C125.464 52.7125 125.464 53.1377 125.439 53.5618C125.404 54.5065 125.277 55.4455 125.059 56.3653C124.67 58.07 124.034 60.1957 122.466 61.0994C122.348 61.1688 122.262 61.2825 122.227 61.4154C122.193 61.5483 122.212 61.6895 122.281 61.8079C122.351 61.9264 122.464 62.0125 122.597 62.0471C122.729 62.0818 122.87 62.0622 122.989 61.9928C126.064 60.2265 126.812 54.8043 126.412 51.5593C126.197 49.8649 123.891 47.39 122.773 49.9265C122.507 50.5324 123.388 51.0561 123.655 50.4502Z" fill="#D37A71"/>
<path id="Vector_18" d="M96.2345 54.9686C96.9025 54.9686 97.4441 54.0905 97.4441 53.0072C97.4441 51.9239 96.9025 51.0458 96.2345 51.0458C95.5664 51.0458 95.0249 51.9239 95.0249 53.0072C95.0249 54.0905 95.5664 54.9686 96.2345 54.9686Z" fill="#312553"/>
<path id="Vector_19" d="M114.583 52.35C114.583 53.3769 114.04 54.3114 113.373 54.3114C112.707 54.3114 112.174 53.4282 112.174 52.35C112.174 51.2717 112.707 50.3783 113.373 50.3783C114.04 50.3783 114.583 51.2614 114.583 52.35Z" fill="#312553"/>
<path id="Vector_20" d="M91.8985 46.4864C94.1498 45.802 96.5289 45.6509 98.8484 46.0448C99.4942 46.1577 99.771 45.1616 99.1252 45.0179C96.6245 44.5778 94.0559 44.7255 91.6218 45.4492C91.4858 45.4859 91.37 45.5753 91.2999 45.6976C91.2297 45.8199 91.2109 45.9651 91.2476 46.1013C91.2843 46.2374 91.3735 46.3534 91.4956 46.4237C91.6176 46.494 91.7626 46.5129 91.8985 46.4761V46.4864Z" fill="#312553"/>
<path id="Vector_21" d="M110.206 45.9421L116.561 45.4594C117.217 45.4081 117.217 44.3812 116.561 44.4325L110.206 44.9152C109.55 44.9665 109.55 45.9934 110.206 45.9421Z" fill="#312553"/>
<path id="Vector_22" d="M79.3718 24.0994C83.6652 27.5112 88.6022 30.0191 93.8867 31.4727C94.0227 31.5095 94.1676 31.4907 94.2897 31.4204C94.4117 31.3501 94.5009 31.2341 94.5376 31.0979C94.5743 30.9617 94.5555 30.8165 94.4854 30.6942C94.4152 30.5719 94.2994 30.4826 94.1635 30.4458C89.0503 29.0587 84.2676 26.656 80.0996 23.3806C79.5871 22.9698 78.8593 23.6887 79.3718 24.0994Z" fill="#3F3468"/>
<path id="Vector_23" d="M90.2479 23.4934C93.4987 27.1838 97.5102 30.1234 102.005 32.1093C102.6 32.3763 103.123 31.4931 102.518 31.2261C98.1173 29.2596 94.1911 26.3666 91.0065 22.7438C90.576 22.2406 89.8482 22.9697 90.2889 23.4626L90.2479 23.4934Z" fill="#3F3468"/>
<path id="Vector_24" d="M98.5304 23.5962L107.418 30.0555C107.951 30.4457 108.443 29.5626 107.93 29.1723L99.0532 22.6719C98.5202 22.2817 98.0282 23.1649 98.5304 23.5551V23.5962Z" fill="#3F3468"/>
<path id="Vector_25" d="M106.588 20.2999C108.419 23.0067 110.797 25.2982 113.568 27.0262C114.122 27.3754 114.593 26.4922 114.081 26.143C111.462 24.5054 109.21 22.3409 107.469 19.7864C107.1 19.2421 106.208 19.7864 106.588 20.2999Z" fill="#3F3468"/>
<path id="Vector_26" d="M113.107 18.7595C114.971 20.5277 116.582 22.5459 117.894 24.7568C117.969 24.8596 118.079 24.931 118.203 24.9572C118.327 24.9834 118.456 24.9625 118.566 24.8987C118.676 24.8348 118.758 24.7324 118.797 24.6113C118.835 24.4903 118.828 24.3591 118.776 24.2433C117.421 21.9548 115.759 19.8642 113.835 18.0304C113.353 17.5786 112.625 18.2974 113.107 18.7595Z" fill="#3F3468"/>
<path id="Vector_27" d="M86.6294 136.568C88.048 136.907 89.5263 136.907 90.9449 136.568C91.6498 136.375 92.2735 135.959 92.7225 135.381C93.1715 134.803 93.4218 134.096 93.4358 133.364C93.3641 132.337 92.6875 131.495 92.503 130.509C92.2262 128.938 93.2001 127.428 93.5281 125.898C93.7741 124.871 94.2661 121.143 92.7798 120.876C91.2934 120.609 90.4939 123.341 90.0531 124.224C89.2023 125.929 88.003 126.976 87.593 128.897C87.1214 131.382 86.9369 134.021 86.6294 136.568Z" fill="#FFAF9D"/>
<path id="Vector_28" d="M119.493 241.344C129.856 240.42 143.408 241.344 153.679 239.722C155.616 199.23 152.787 155.268 149.927 112.548C149.743 109.703 154.54 100.903 152.674 98.7873C151.219 97.1442 120.169 83.1987 120.897 85.386C122.496 90.4487 124.034 107.485 123.716 112.569C122.455 132.655 123.224 142.144 122.384 162.251C121.4 185.192 120.456 218.403 119.493 241.344Z" fill="#CC993E"/>
<path id="Vector_29" d="M124.608 89.812C126.956 96.0557 129.887 102.073 132.019 108.399C133.05 111.432 133.818 114.549 134.315 117.713C134.602 119.613 135.115 121.154 133.741 122.53C132.655 123.783 131.349 124.827 129.887 125.611C129.801 125.635 129.723 125.682 129.66 125.746C129.597 125.81 129.551 125.889 129.528 125.975C129.504 126.062 129.503 126.153 129.525 126.241C129.546 126.328 129.59 126.408 129.651 126.473C130.779 127.798 132.317 128.732 133.311 130.18C135.166 132.912 134.008 136.054 132.983 138.868C132.768 139.494 133.752 139.761 134.008 139.145C134.951 136.516 136.058 133.518 134.89 130.766C133.967 128.63 131.814 127.459 130.41 125.744C130.338 126.032 130.256 126.319 130.184 126.596C132.306 125.775 133.649 123.711 135.576 122.55C135.652 122.504 135.716 122.439 135.761 122.362C135.805 122.285 135.83 122.198 135.833 122.109C135.023 110.402 129.682 100.317 125.582 89.5348C125.356 88.9289 124.362 89.1856 124.557 89.812H124.608Z" fill="#AD7B34"/>
<path id="Vector_30" d="M130.523 195.831C133.464 190.968 136.928 186.443 140.855 182.338C141.306 181.865 140.589 181.136 140.127 181.608C136.166 185.787 132.664 190.38 129.682 195.308C129.613 195.426 129.593 195.567 129.628 195.7C129.662 195.833 129.748 195.947 129.867 196.016C129.985 196.086 130.126 196.105 130.258 196.07C130.391 196.036 130.505 195.95 130.574 195.831H130.523Z" fill="#C4903B"/>
<path id="Vector_31" d="M130.502 212.93C133.95 207.429 138.792 202.943 144.535 199.929C145.119 199.621 144.597 198.727 144.012 199.035C138.143 202.148 133.194 206.752 129.662 212.385C129.313 212.95 130.195 213.464 130.553 212.909L130.502 212.93Z" fill="#C4903B"/>
<path id="Vector_32" d="M184.359 185.932C184.359 189.29 182.371 189.865 177.184 194.147C169.352 200.565 163.058 186.476 159.758 179.575C157.626 175.159 137.811 142.852 140.374 118.494C141.132 111.305 143.633 94.8747 152.736 98.7873C159.573 101.724 163.96 111.213 166.175 116.419C177.389 142.852 184.472 164.89 184.359 185.932Z" fill="#C4903B"/>
<path id="Vector_33" d="M118.694 126.946C116.131 126.34 114.819 122.571 112.195 122.232C111.341 122.073 110.465 122.073 109.612 122.232C107.069 122.848 105.891 125.806 103.666 127.171C102.426 127.942 100.898 128.198 99.6684 128.948C98.4383 129.698 97.6183 131.536 98.5203 132.655C99.4224 133.775 100.98 133.384 102.18 132.84C103.379 132.296 104.65 131.556 105.911 131.906L105.45 138.16C105.347 139.505 105.296 141.014 106.198 142.021C106.638 142.452 107.152 142.799 107.715 143.048C115.157 146.991 119.473 152.732 125.705 158.4C129.559 154.58 135.423 150.75 139.277 146.929C138.119 148.08 129.375 139.084 128.524 137.995C125.961 134.658 119.637 127.171 118.694 126.946Z" fill="#FFAF9D"/>
<path id="Vector_34" d="M153.679 190.173C156.652 193.983 175.615 207.939 183.303 190.173C188.48 178.199 174.139 167.047 167.866 163.268C163.181 160.475 144.648 146.334 132.757 140.244C131.281 139.495 118.406 154.539 123.634 158.79C139.277 171.617 145.191 179.277 153.679 190.173Z" fill="#C4903B"/>
<path id="Vector_35" d="M143.91 103.09C139.277 108.851 139.195 117.21 139.154 124.265C139.003 128.926 139.591 133.581 140.896 138.057C142.393 142.698 145.15 146.724 147.918 150.678C148.297 151.212 149.179 150.678 148.8 150.164C146.268 146.529 143.674 142.852 142.178 138.652C140.734 134.314 140.041 129.761 140.128 125.189C140.128 118.196 139.984 109.549 144.587 103.819C144.997 103.306 144.269 102.577 143.859 103.09H143.91Z" fill="#AD7B34"/>
<path id="Vector_36" d="M147.939 150.75C157.103 155.514 167.415 161.224 169.67 172.253C169.803 172.9 170.798 172.623 170.695 171.976C168.378 160.68 157.882 154.755 148.482 149.866C147.898 149.558 147.385 150.441 147.969 150.75H147.939Z" fill="#AD7B34"/>
<path id="Vector_37" d="M164.586 161.039C166.136 161.302 167.599 161.939 168.849 162.894C170.099 163.849 171.099 165.095 171.761 166.523C172.048 167.119 172.93 166.595 172.653 165.999C171.923 164.461 170.839 163.119 169.49 162.084C168.141 161.048 166.565 160.349 164.893 160.043C164.248 159.93 163.971 160.916 164.617 161.07L164.586 161.039Z" fill="#AD7B34"/>
<path id="Vector_38" d="M87.5522 109.662C89.018 148.757 88.1262 198.214 84.8665 237.206C84.8764 237.841 84.6942 238.464 84.3437 238.993C83.9892 239.297 83.5724 239.521 83.1226 239.646C82.6728 239.772 82.2009 239.798 81.7401 239.722L56.503 239.013C55.6282 239.093 54.7558 238.836 54.0634 238.294C53.5583 237.575 53.349 236.689 53.4791 235.82C54.3709 199.148 55.2729 152.218 56.175 115.547C56.3614 113.527 56.1382 111.491 55.519 109.56C54.1556 106.089 48.5075 104.754 48.3948 101.026C48.3948 99.999 85.6661 83.2089 85.6661 83.2089C83.6877 90.0071 87.2754 102.34 87.5522 109.662Z" fill="#CC993E"/>
<path id="Vector_39" d="M81.7913 87.0598C76.83 97.9658 75.8152 110.412 73.4166 122.027C73.391 122.135 73.4 122.249 73.4423 122.352C73.4846 122.455 73.558 122.542 73.6523 122.602C74.7799 123.31 75.9177 124.008 77.0248 124.748C77.4656 125.035 78.4189 125.446 78.7059 125.898C79.1364 126.596 79.1364 126.042 78.7059 126.925C77.7936 128.356 76.6822 129.649 75.4052 130.766C74.9542 131.217 74.4724 131.536 74.3801 132.162C74.0521 133.641 75.2617 136.044 75.7332 137.41C76.2433 139.313 77.1171 141.098 78.3061 142.668C78.7572 143.15 79.4747 142.421 79.0339 141.939C77.5168 140.285 76.8403 137.625 76.1945 135.531C75.8387 134.684 75.6007 133.793 75.4872 132.881C75.4872 131.782 76.3483 131.33 77.1273 130.488C77.9064 129.646 80.428 127.408 80.2025 126.052C80.018 124.933 77.5783 123.854 76.7993 123.351C76.2623 123.047 75.7483 122.704 75.2617 122.324C74.4416 121.605 74.7184 122.027 74.7389 120.897C74.8956 119.422 75.1733 117.962 75.5692 116.532C76.174 113.246 76.7583 109.95 77.3938 106.674C78.6546 100.204 79.977 93.5705 82.7242 87.5425C82.9907 86.9469 82.1091 86.4232 81.8426 87.0188L81.7913 87.0598Z" fill="#AD7B34"/>
<path id="Vector_40" d="M62.192 197.598C66.3091 203.748 71.4554 209.14 77.4039 213.535C77.9267 213.926 78.429 213.032 77.9165 212.642C72.1085 208.348 67.0808 203.085 63.053 197.084C62.6943 196.54 61.8025 197.084 62.1715 197.598H62.192Z" fill="#C4903B"/>
<path id="Vector_41" d="M61.5052 211.472C65.7873 215.623 70.6661 219.109 75.9791 221.813C76.5634 222.11 77.0862 221.227 76.4917 220.919C71.256 218.279 66.446 214.866 62.2228 210.794C61.7512 210.332 61.0235 211.061 61.5052 211.523V211.472Z" fill="#C4903B"/>
<path id="Vector_42" d="M117.832 114.725H95.7936C94.384 114.725 93.2412 115.87 93.2412 117.282V160.721C93.2412 162.133 94.384 163.278 95.7936 163.278H117.832C119.242 163.278 120.385 162.133 120.385 160.721V117.282C120.385 115.87 119.242 114.725 117.832 114.725Z" fill="#312553"/>
<path id="Vector_43" d="M114.603 119.839H112.143C111.7 119.839 111.275 120.016 110.962 120.33C110.648 120.643 110.472 121.069 110.472 121.513C110.472 121.957 110.648 122.383 110.962 122.697C111.275 123.011 111.7 123.187 112.143 123.187H114.603C115.046 123.187 115.471 123.011 115.785 122.697C116.098 122.383 116.274 121.957 116.274 121.513C116.274 121.069 116.098 120.643 115.785 120.33C115.471 120.016 115.046 119.839 114.603 119.839Z" fill="#FAFAFA"/>
<path id="Vector_44" d="M90.945 131.135C92.4826 130.108 94.6763 135.715 97.4337 135.592C99.3095 135.5 103.953 136.198 106.813 135.756C111.446 135.048 116.274 132.511 116.274 136.445C113.373 137.81 110.821 139.351 108.074 139.782C102.723 140.624 101.329 140.809 100.037 140.973C102.627 141.658 105.309 141.921 107.982 141.754C111.569 141.62 114.644 138.58 115.844 141.405C116.274 142.431 112.543 144.383 109.181 145.091C106.176 145.782 103.116 146.212 100.037 146.375C102.967 146.595 105.908 146.633 108.843 146.488C112.123 146.272 114.901 144.742 114.993 148.151C114.286 150.298 100.017 149.63 100.017 151.335C101.228 152.1 102.529 152.711 103.892 153.153C106.075 153.769 111.385 151.386 110.411 154.755C110.083 155.894 99.2378 155.658 98.059 155.781C95.3221 156.172 95.158 156.593 92.4314 156.141C91.5804 155.926 90.6951 155.884 89.8277 156.018C89.013 156.314 88.2717 156.784 87.6546 157.394L75.8561 167.047L70.7308 158.061C70.4546 157.648 70.2758 157.178 70.208 156.685C70.2882 155.836 70.701 155.053 71.3561 154.508C74.175 151.52 71.8071 151.171 74.5235 148.151C77.0042 145.41 87.7776 133.251 90.945 131.135Z" fill="#FFAF9D"/>
<path id="Vector_45" d="M33.3878 197.341C40.1635 203.41 52.6898 197.557 60.1932 192.412C76.7583 181.116 86.3016 159.704 85.6763 158.39C84.108 155.114 84.0465 145.872 78.5726 142.77C77.2708 142.041 59.4655 155.391 55.0782 160.146C55.7035 159.951 61.3311 147.32 63.1762 142.072C66.5281 132.542 67.8505 117.785 64.4575 107.691C60.8083 96.8055 53.2741 97.6578 48.3948 101.026C33.9721 110.967 17.9504 183.478 33.3878 197.341Z" fill="#C4903B"/>
<path id="Vector_46" d="M61.8743 104.466C66.3231 112.682 65.9746 122.098 63.8424 130.95C61.6078 140.08 58.3584 148.942 55.7854 157.979C55.7487 158.115 55.7675 158.26 55.8377 158.383C55.9079 158.505 56.0237 158.594 56.1596 158.631C56.2955 158.668 56.4405 158.649 56.5625 158.579C56.6846 158.508 56.7738 158.392 56.8105 158.256C59.5884 148.521 63.2479 138.981 65.3595 129.071C67.1534 120.609 66.9484 111.696 62.7661 103.994C62.4484 103.408 61.5668 103.922 61.8743 104.507V104.466Z" fill="#AD7B34"/>
<path id="Vector_47" d="M60.7263 155.34C52.3611 160.298 46.2509 168.323 43.6897 177.716C43.6716 177.784 43.6668 177.854 43.6758 177.924C43.6848 177.993 43.7073 178.06 43.742 178.12C43.7767 178.181 43.8231 178.234 43.8783 178.276C43.9335 178.319 43.9966 178.35 44.0639 178.369C44.1998 178.405 44.3448 178.387 44.4668 178.316C44.5273 178.281 44.5803 178.235 44.6228 178.18C44.6654 178.124 44.6966 178.061 44.7148 177.994C47.2029 168.856 53.1441 161.048 61.2798 156.223C61.3824 156.148 61.4537 156.038 61.4799 155.914C61.506 155.789 61.4852 155.66 61.4215 155.55C61.3577 155.44 61.2555 155.358 61.1346 155.319C61.0138 155.28 60.8829 155.288 60.7673 155.34H60.7263Z" fill="#AD7B34"/>
<path id="Vector_48" d="M50.9472 160.474C46.2952 162.684 42.47 166.325 40.0303 170.867C39.7125 171.442 40.6043 171.966 40.9119 171.38C43.2673 166.998 46.9646 163.488 51.4598 161.368C52.0645 161.08 51.5418 160.197 50.9472 160.474Z" fill="#AD7B34"/>
</g>
</g>
</g>
</g>
</g>
</svg>
