<svg width="199" height="244" viewBox="0 0 199 244" fill="none" xmlns="http://www.w3.org/2000/svg">
<g clip-path="url(#clip0_905_396)">
<path d="M57.5382 17.1458C44.7857 24.4098 32.0332 33.5722 26.4614 47.1214C21.5757 59.0078 22.9953 72.5923 26.6625 84.8561C28.2004 89.9975 30.1168 95.469 28.5789 100.575C27.2777 104.879 23.847 108.087 20.6885 111.329C7.99518 124.607 -0.534071 142.449 -0.0135619 160.762C0.506947 179.075 11.201 197.388 28.0703 204.711C49.1154 213.767 73.0233 204.711 95.346 199.711C109.069 196.634 123.134 195.112 136.75 191.457C150.366 187.801 161.723 181.15 173.138 172.955C224.574 135.987 183.974 101.459 181.265 97.7803C174.168 88.2169 178.616 74.9625 180.97 63.3237C183.324 51.6849 183.17 39.256 177.835 28.7257C171.388 16.0374 158.268 7.78289 144.57 4.08016C130.871 0.377441 116.438 0.566115 102.243 0.837334C88.0471 1.10855 69.5927 10.2828 57.5382 17.1458Z" fill="#E7E9F2"/>
<path d="M181.526 174.37C183.892 173.887 188.623 166.965 187.724 163.132C186.932 159.595 182.224 154.878 180.094 152.024C174.286 144.147 165.059 143.121 158.008 136.341C155.606 133.785 152.765 131.677 149.621 130.114C146.415 128.711 142.523 128.428 139.495 130.197C135.39 132.555 134.017 138.086 135.035 142.72C137.827 155.467 160.658 178.568 181.526 174.37Z" fill="#FFAF9D"/>
<path d="M154.589 105.021C162.799 112.096 165.745 115.634 182.851 125.539C190.102 129.749 178.71 141.906 168.359 141.612C164.089 141.482 160.918 150.456 158.091 153.651C155.725 156.364 155.997 170.502 152.685 168.981C149.372 167.46 148.485 165.278 146.084 162.554C140.749 156.517 145.977 148.05 140.654 142.013C137.448 138.392 134.207 134.701 132.208 130.327C128.895 123.074 125.772 103.452 132.208 97.0138C139.672 89.5023 149.041 100.304 154.589 105.021Z" fill="#626FAC"/>
<path d="M59.0406 111.424C58.3989 112.546 58.0264 113.801 57.9523 115.091C57.9523 117.815 60.2355 119.914 62.1046 121.919C73.5203 134.135 67.1795 151.67 64.9437 168.226C62.7079 184.782 52.3687 202.423 62.8143 215.395C64.7308 217.753 57.5028 234.333 57.9523 235.359C58.6266 236.856 57.3017 246.644 70.2907 242.823C96.4463 235.135 133.083 245.642 160.575 236.821C170.678 229.982 163.722 219.015 158.458 206.162C153.454 193.98 150.378 179.959 150.839 172.13C151.254 165.054 152.59 163.686 153.915 156.741C155.24 149.795 155.335 143.534 151.076 137.873C149.586 135.904 145.611 128.817 144.168 126.812C138.454 118.876 139.944 95.3629 138.608 94.5492C136.821 93.4643 125.701 92.5328 123.619 92.5563C108.915 92.745 101.805 94.2426 87.3492 96.8369C75.0108 99.101 65.2276 98.8297 59.0406 111.424Z" fill="#626FAC"/>
<path d="M78.7843 168.05C83.2914 171.316 87.6566 173.651 93.394 172.872C99.5928 172.035 104.786 168.285 109.695 164.689C110.299 164.241 109.695 163.215 109.092 163.663C104.822 166.811 100.397 170.078 95.133 171.351C88.9342 172.849 84.2496 170.573 79.3758 167.035C78.7606 166.587 78.1928 167.613 78.7843 168.05Z" fill="#546296"/>
<path d="M120.26 164.677C125.618 166.717 131.19 169.995 137.141 168.686C141.541 167.719 146.711 165.019 149.053 161.057C149.132 160.921 149.153 160.759 149.112 160.608C149.071 160.456 148.971 160.327 148.834 160.249C148.698 160.171 148.536 160.15 148.384 160.191C148.232 160.232 148.102 160.331 148.024 160.467C145.658 164.429 139.601 167.542 135.011 167.802C129.936 168.132 125.122 165.278 120.532 163.545C119.822 163.274 119.514 164.417 120.224 164.724L120.26 164.677Z" fill="#546296"/>
<path d="M140.122 122.331C141.79 131.352 146.935 139.277 149.585 147.967C149.81 148.699 150.958 148.392 150.768 147.661C148.059 138.958 142.925 131.034 141.304 122.025C141.174 121.27 140.027 121.589 140.122 122.331Z" fill="#546296"/>
<path d="M86.7223 187.023C92.2636 193.267 99.1047 198.231 106.769 201.569C114.432 204.908 122.734 206.539 131.096 206.35C131.853 206.35 131.853 205.171 131.096 205.171C122.885 205.362 114.732 203.763 107.207 200.486C99.681 197.209 92.9644 192.332 87.5267 186.197C87.018 185.631 86.1899 186.469 86.6868 187.035L86.7223 187.023Z" fill="#546296"/>
<path d="M94.7073 217.258C99.9242 214.829 106.726 216.279 112.239 216.94C118.284 217.682 124.199 218.72 130.114 220.041C130.847 220.206 131.167 219.074 130.421 218.862C124.066 217.452 117.642 216.369 111.174 215.619C105.638 214.982 99.4155 213.779 94.1631 216.232C93.477 216.55 94.0803 217.565 94.7665 217.246L94.7073 217.258Z" fill="#546296"/>
<path d="M90.0935 124.289C99.4433 131.451 111.051 135.051 122.826 134.442C123.584 134.442 123.584 133.263 122.826 133.263C111.262 133.86 99.8658 130.313 90.6968 123.263C90.0935 122.803 89.5139 123.829 90.0935 124.289Z" fill="#546296"/>
<path d="M86.3435 71.6726C86.0937 71.3334 85.7593 71.0651 85.3735 70.8943L77.3529 66.5548C77.1045 69.0076 75.1763 85.1038 73.2007 90.9291C75.2945 87.0849 77.4357 83.2524 79.5414 79.4082C78.666 86.2712 79.3285 88.4056 78.3585 92.2734C80.9965 86.4717 83.4098 79.6323 86.0478 73.8423C86.264 73.529 86.4035 73.1694 86.4548 72.7926C86.5062 72.4157 86.4681 72.0321 86.3435 71.6726Z" fill="#323146"/>
<path d="M81.9311 94.4549C79.8491 95.9289 75.685 96.1412 70.3262 99.0067L88.5558 108.759C92.1047 110.645 95.6537 112.556 99.6048 113.193C103.388 113.947 107.312 113.535 110.855 112.013C121.419 106.872 124.447 97.1671 123.655 92.5446C119.42 92.8158 114.688 92.9337 111.494 90.1862C108.974 87.981 105.579 69.9627 105.271 64.2435C97.1797 63.7247 86.7222 64.5973 79.2458 61.6139C81.245 77.1913 88.1299 90.0329 81.9311 94.4549Z" fill="#F29E91"/>
<path d="M87.3137 104.608C91.5132 105.032 97.7712 104.608 101.048 107.591C101.604 108.11 102.444 107.273 101.876 106.754C98.3272 103.405 91.88 103.889 87.3137 103.429C86.5566 103.346 86.5566 104.525 87.3137 104.608Z" fill="#E28A81"/>
<path d="M105.792 106.365C106.88 107.379 107.98 106.047 108.844 105.351C111.074 103.605 113.704 102.438 116.498 101.955C117.243 101.813 116.923 100.681 116.178 100.775C114.37 101.1 112.621 101.688 110.985 102.521C110.571 102.733 106.632 105.504 106.632 105.492C106.076 104.973 105.236 105.811 105.792 106.33V106.365Z" fill="#E28A81"/>
<path d="M33.0031 200.761C36.5521 213.732 49.1034 217.27 50.9725 217.458C55.456 217.942 64.139 206.987 65.3457 201.551C67.0846 193.686 66.9664 181.917 67.7116 173.898C68.0192 170.597 68.1848 167.047 66.5286 164.205C64.5767 160.951 60.6138 159.488 56.8874 158.84C50.5703 157.802 43.7682 158.769 38.504 162.377C26.7452 170.514 29.6672 188.556 33.0031 200.761Z" fill="#FFAF9D"/>
<path d="M35.2747 140.503C35.0617 145.22 35.6532 150.22 33.9142 154.654C32.7313 157.59 30.7084 160.054 29.1823 162.79C24.2375 171.446 24.3322 178.002 24.8645 187.955C28.0822 189.134 37.7471 191.174 41.1067 190.443L72.148 183.662C72.9607 183.57 73.7271 183.237 74.3483 182.707C74.6656 182.268 74.8856 181.766 74.9937 181.235C75.1018 180.705 75.0955 180.157 74.9753 179.629C74.3838 174.417 72.0534 169.512 71.6275 164.3C71.0242 156.823 74.3602 149.677 75.9927 142.354C77.7104 134.615 77.5278 126.577 75.4603 118.924C66.2331 85.0684 36.1501 121.341 35.2747 140.503Z" fill="#626FAC"/>
<path d="M155.808 144.347C153.347 133.734 150.721 126.754 148.095 109.372C147.491 105.41 145.374 95.9643 143.812 92.2734C139.838 82.8397 131.651 78.0403 131.036 67.8402L139.577 73.5947C139.592 69.9286 138.801 66.3038 137.26 62.9749C135.719 59.6461 133.466 56.6941 130.658 54.3264C129.309 53.1472 124.483 50.3996 124.045 48.7016C123.394 46.2134 124.672 44.5272 127.168 43.9258C129.664 43.3244 134.112 48.1002 136.632 48.8431C139.969 49.9076 143.151 51.4063 146.096 53.3005C153.915 58.6895 155.559 65.5289 157.121 74.8683C162.314 105.386 186.565 125.173 191.427 155.739C193.095 166.116 183.395 180.62 170.808 172.861C160.504 166.552 158.304 155.078 155.808 144.347Z" fill="#FFAF9D"/>
<path d="M115.79 46.0825L108.354 63.6892C107.877 64.8176 108.409 66.1175 109.541 66.5926L144.289 81.1741C145.421 81.6492 146.725 81.1195 147.201 79.991L154.637 62.3844C155.114 61.2559 154.582 59.956 153.45 59.481L118.702 44.8994C117.57 44.4244 116.266 44.9541 115.79 46.0825Z" fill="#312553"/>
<path d="M119.566 46.8357L111.534 65.8552L143.436 79.2426L151.468 60.223L119.566 46.8357Z" fill="#8491C1"/>
<path d="M113.552 58.0172L115.362 53.7721C115.386 53.6886 115.379 53.5992 115.341 53.5208C115.304 53.4424 115.238 53.3805 115.158 53.347C115.078 53.3134 114.988 53.3106 114.905 53.339C114.823 53.3674 114.754 53.425 114.711 53.5008L112.925 57.746C112.901 57.8294 112.908 57.9189 112.946 57.9973C112.983 58.0757 113.048 58.1376 113.129 58.1711C113.209 58.2046 113.299 58.2075 113.382 58.1791C113.464 58.1507 113.533 58.0931 113.576 58.0172H113.552Z" fill="#FAFAFA"/>
<path d="M150.118 70.8589C150.216 70.6042 150.212 70.3212 150.105 70.0699C149.998 69.8186 149.796 69.6188 149.544 69.5129C149.292 69.407 149.008 69.4034 148.752 69.5028C148.497 69.6022 148.291 69.7967 148.178 70.0452C148.079 70.2999 148.083 70.5829 148.191 70.8342C148.298 71.0855 148.499 71.2853 148.751 71.3912C149.004 71.4971 149.288 71.5007 149.543 71.4013C149.798 71.3019 150.004 71.1073 150.118 70.8589Z" fill="#FAFAFA"/>
<path d="M131.628 69.491L137.212 67.2151C137.288 67.1727 137.345 67.1039 137.374 67.0218C137.402 66.9397 137.4 66.8499 137.366 66.7698C137.332 66.6896 137.27 66.6246 137.192 66.5871C137.113 66.5496 137.023 66.5423 136.939 66.5665L131.344 68.8424C131.272 68.8857 131.217 68.9532 131.19 69.0328C131.163 69.1125 131.166 69.1991 131.197 69.2772C131.228 69.3553 131.287 69.4197 131.361 69.4588C131.436 69.498 131.522 69.5094 131.604 69.491H131.628Z" fill="#FAFAFA"/>
<path d="M123.986 65.1751L138.324 59.3498C138.396 59.3065 138.45 59.239 138.477 59.1594C138.504 59.0797 138.502 58.9931 138.47 58.915C138.439 58.8369 138.381 58.7726 138.306 58.7334C138.232 58.6942 138.146 58.6828 138.063 58.7012L123.726 64.5265C123.653 64.5698 123.599 64.6373 123.572 64.7169C123.545 64.7966 123.547 64.8832 123.579 64.9613C123.61 65.0394 123.668 65.1038 123.743 65.1429C123.817 65.1821 123.904 65.1935 123.986 65.1751Z" fill="#FAFAFA"/>
<path d="M123.631 58.5479L127.665 56.9088C127.741 56.8665 127.799 56.7976 127.827 56.7155C127.856 56.6334 127.853 56.5437 127.819 56.4635C127.786 56.3833 127.724 56.3183 127.645 56.2808C127.566 56.2433 127.476 56.236 127.393 56.2603L123.359 57.8994C123.283 57.9417 123.225 58.0106 123.196 58.0927C123.168 58.1748 123.171 58.2645 123.204 58.3447C123.238 58.4249 123.3 58.4899 123.379 58.5274C123.457 58.5649 123.547 58.5722 123.631 58.5479Z" fill="#FAFAFA"/>
<path d="M127.748 77.545C126.139 76.9908 123.3 76.8611 121.703 76.2951C120.898 76.0239 121.596 72.7574 125.867 72.7574C127.606 72.7574 129.309 73.6301 131.013 74.0192C133.781 74.6324 141.742 78.6417 142.618 81.3303C143.801 84.9859 136.703 85.1745 134.337 83.6062C129.83 80.7171 129.913 78.288 127.748 77.545Z" fill="#FFAF9D"/>
<path d="M157.902 154.288C158.211 157.551 159.801 160.56 162.326 162.66C162.906 163.144 163.746 162.307 163.166 161.823C160.86 159.948 159.393 157.239 159.085 154.288C159.002 153.545 157.819 153.533 157.902 154.288Z" fill="#F29E91"/>
<path d="M41.9821 164.618C39.7936 173.804 36.1618 182.754 35.7005 192.188C35.2391 201.622 38.8709 212.128 47.4001 216.256C49.1908 217.174 51.1833 217.632 53.1967 217.588C59.0169 217.293 63.1337 211.692 65.192 206.315C71.1069 190.867 67.2386 173.71 64.5296 157.425C62.5658 145.633 61.6313 125.975 63.9144 124.006C67.8774 120.598 68.043 113.299 70.7757 109.714C71.2253 108.971 71.939 108.424 72.7749 108.181C74.7505 107.839 76.7379 110.657 78.3467 109.466C79.0092 103.299 72.0533 99.4194 66.2331 97.2379C64.0919 96.436 61.8087 95.6224 59.5611 96.0587C54.4388 97.061 52.4632 103.676 47.7313 105.905C48.9143 105.363 42.4198 95.9289 36.635 99.7496C42.0294 105.032 40.5862 108.664 42.5499 113.24C44.2889 117.355 44.4663 121.494 44.6793 125.975C45.3299 138.899 45.0105 152 41.9821 164.618Z" fill="#FFAF9D"/>
<path d="M35.4758 193.957C35.8091 195.86 36.4609 197.693 37.404 199.381C37.7707 200.041 38.7881 199.452 38.4214 198.78C37.5439 197.179 36.9477 195.44 36.6587 193.638C36.5286 192.895 35.3811 193.214 35.4758 193.957Z" fill="#F29E91"/>
<path d="M59.5611 102.568C59.9466 101.638 60.6379 100.866 61.5215 100.38C62.405 99.8935 63.4283 99.7211 64.4232 99.891C65.1684 100.021 65.4878 98.8887 64.7426 98.7118C63.4393 98.4727 62.0931 98.6954 60.9373 99.3415C59.7814 99.9876 58.8887 101.016 58.4136 102.249C58.1297 102.957 59.2772 103.264 59.5966 102.556L59.5611 102.568Z" fill="#F29E91"/>
<path d="M64.1154 105.021C64.5586 104.269 65.1587 103.621 65.8751 103.12C66.5915 102.62 67.4075 102.278 68.2677 102.12C69.013 101.978 68.6936 100.834 67.9483 100.941C66.9317 101.147 65.9719 101.57 65.1347 102.18C64.2976 102.791 63.6028 103.575 63.0981 104.478C63.0213 104.612 63.0005 104.772 63.0402 104.921C63.0799 105.07 63.1769 105.198 63.3103 105.277C63.4437 105.356 63.6028 105.38 63.7534 105.343C63.904 105.306 64.034 105.211 64.1154 105.08V105.021Z" fill="#F29E91"/>
<path d="M67.9128 107.214C68.9253 106.368 70.1543 105.821 71.4618 105.634C72.2189 105.528 71.8995 104.384 71.1542 104.455C69.6297 104.684 68.1999 105.334 67.0256 106.33C66.446 106.825 67.2859 107.65 67.8655 107.167L67.9128 107.214Z" fill="#F29E91"/>
<path d="M59.7504 31.8977C58.2729 31.887 56.8185 31.5316 55.5035 30.86C54.6178 30.2118 53.8928 29.3699 53.3842 28.3989C52.8756 27.428 52.597 26.3538 52.5697 25.2588C52.1439 20.4004 54.498 15.6128 57.9523 12.1223C61.4066 8.63188 65.2394 4.24522 70.1369 4.16267C79.6007 4.10371 79.1393 12.2756 79.092 15.2708C79.0447 18.266 79.6007 21.4971 81.7064 23.6432C90.1055 32.1925 62.6132 32.11 59.7504 31.8977Z" fill="#323146"/>
<path d="M73.3309 59.5031C78.3231 68.2764 76.4421 69.7622 83.7766 76.7196C89.4785 82.0732 105.934 89.8914 113.138 86.8726C118.627 84.5731 121.253 78.3941 122.898 72.7221C127.227 57.581 124.305 45.329 118.379 31.7799C117.196 29.1502 114.593 23.0419 112.085 21.6504C109.831 20.5115 107.419 19.7165 104.928 19.292C96.0795 17.4171 86.3436 17.2992 78.536 21.8155C65.6179 29.2799 66.931 48.1945 73.3309 59.5031Z" fill="#FFAF9D"/>
<path d="M92.6608 41.0249C94.628 43.7127 96.1387 46.7045 97.1324 49.8808C103.591 47.369 108.17 46.6851 112.428 44.7276C112.345 42.0862 110.169 38.69 109.116 36.2609C112.89 38.6193 112.665 44.4446 115.208 44.6097C118.42 43.9499 121.689 43.6024 124.968 43.572C125.618 37.5462 124.01 29.162 120.685 24.7046C117.361 20.2472 107.341 11.6979 83.1733 18.0538C77.4596 19.5632 74.1827 23.8791 70.1606 28.2186C64.5888 34.209 63.2757 43.5484 65.4287 51.4963C67.357 58.6777 73.2482 66.543 75.8389 69.4203C76.3476 69.9863 80.417 67.2034 80.7719 66.1303C81.6946 63.3591 81.2924 57.1447 81.9549 54.3382C81.9549 54.3382 92.2467 50.9067 93.3824 50.0105C94.518 49.1143 93.6545 44.8101 92.6608 41.0249Z" fill="#323146"/>
<path d="M83.5518 66.1184L82.7947 63.5595C81.6117 60.6705 80.0384 56.6494 76.8798 56.4843C67.5106 55.9654 71.4618 66.826 73.6976 70.1278C74.5867 71.5816 75.8704 72.7549 77.4003 73.5121C78.1733 73.8692 79.0286 74.0117 79.876 73.9246C80.7234 73.8374 81.5315 73.5238 82.215 73.0168C84.096 71.4603 83.9067 68.5476 83.5518 66.1184Z" fill="#FFAF9D"/>
<path d="M108.82 53.6542C109.383 56.0513 110.175 58.389 111.186 60.6351C111.778 61.8865 112.442 63.103 113.174 64.2789C113.54 64.8567 113.919 65.4581 114.357 66.0005C114.198 66.4428 113.949 66.8473 113.625 67.1883C113.301 67.5294 112.91 67.7995 112.476 67.9816C112.344 68.0628 112.249 68.1923 112.212 68.3425C112.175 68.4926 112.198 68.6512 112.277 68.7842C112.356 68.9172 112.485 69.0139 112.635 69.0534C112.785 69.093 112.944 69.0723 113.079 68.9957C114.64 68.0995 116.202 67.2623 115.374 65.4581C114.546 63.6539 113.114 61.9205 112.251 60.0927C111.261 57.9429 110.492 55.6988 109.956 53.3948C109.914 53.2384 109.811 53.1052 109.67 53.0245C109.529 52.9438 109.362 52.9221 109.205 52.9644C109.048 53.0066 108.914 53.1092 108.833 53.2496C108.752 53.39 108.731 53.5568 108.773 53.7132L108.82 53.6542Z" fill="#E28A81"/>
<path d="M110.938 70.9532L112.298 72.8989L112.511 72.0971C110.477 73.2243 108.102 73.5763 105.827 73.0876C105.703 73.0578 105.573 73.0688 105.456 73.1189C105.338 73.1691 105.24 73.2556 105.177 73.3657C105.113 73.4757 105.086 73.6034 105.101 73.7297C105.116 73.856 105.172 73.9741 105.259 74.0664C106.617 75.8093 108.461 77.1139 110.559 77.8162C111.281 78.0639 111.588 76.92 110.878 76.637C108.996 75.9778 107.35 74.7802 106.147 73.1937L105.579 74.1843C108.161 74.7576 110.864 74.363 113.173 73.0758C113.308 72.9971 113.405 72.8687 113.445 72.7185C113.485 72.5684 113.464 72.4086 113.386 72.2739L112.026 70.3283C111.588 69.7033 110.559 70.3283 110.997 70.9179L110.938 70.9532Z" fill="#E28A81"/>
<path d="M99.7823 58.1469C99.7823 59.3262 99.1553 60.3992 98.3864 60.3992C97.6175 60.3992 96.9905 59.3851 96.9905 58.1469C96.9905 56.9088 97.6056 55.8947 98.3746 55.8947C99.1435 55.8947 99.7823 56.897 99.7823 58.1469Z" fill="#5E443B"/>
<path d="M118.177 53.4891C118.177 54.7391 117.55 55.7414 116.782 55.7414C116.013 55.7414 115.397 54.7391 115.397 53.4891C115.397 52.2391 116.013 51.2368 116.782 51.2368C117.55 51.2368 118.177 52.2509 118.177 53.4891Z" fill="#5E443B"/>
<path d="M78.2993 59.6682C75.5311 58.2649 73.1178 61.0479 73.3663 63.7365C73.6738 67.109 76.442 71.8023 80.263 71.5311C81.0201 71.5311 81.0201 70.3519 80.263 70.3519C77.8024 70.5287 76.5011 68.5005 75.5311 66.543C74.9701 65.5509 74.6576 64.4384 74.6202 63.3002C74.6202 61.8262 75.7086 59.6682 77.696 60.6823C78.3821 61.0243 78.9736 60.0102 78.2993 59.6682Z" fill="#E28A81"/>
<path d="M91.0755 55.2107L98.7175 52.5929C99.4273 52.3453 99.1198 51.2132 98.3981 51.4137L90.7206 54.0669C89.999 54.3145 90.3066 55.4584 91.0282 55.2461L91.0755 55.2107Z" fill="#323146"/>
<path d="M111.73 49.3029C113.697 48.8934 115.56 48.0911 117.207 46.9445C117.823 46.5082 117.207 45.494 116.604 45.9303C115.052 47.0374 113.288 47.816 111.423 48.218C110.677 48.3831 110.985 49.5151 111.73 49.3972V49.3029Z" fill="#323146"/>
<path d="M72.148 50.1047C70.3337 45.8089 69.9643 41.0428 71.0951 36.5202C71.2726 35.7891 70.1251 35.4707 69.9122 36.2136C68.7367 40.9223 69.1099 45.8829 70.9768 50.3641C71.2608 51.0599 72.4082 50.7533 72.1598 50.0576L72.148 50.1047Z" fill="#43435B"/>
<path d="M75.2117 35.1878C74.8632 39.4561 75.6808 43.7388 77.5776 47.5813C77.9207 48.2652 78.9381 47.6638 78.6068 46.9799C76.7956 43.3261 76.0185 39.2491 76.3592 35.1878C76.3592 34.4213 75.1762 34.4331 75.1762 35.1878H75.2117Z" fill="#43435B"/>
<path d="M81.375 32.5463C81.5527 37.6729 82.6547 42.7258 84.6282 47.4633C84.9121 48.1591 86.0596 47.8525 85.8112 47.1449C83.8587 42.5121 82.7569 37.5674 82.558 32.5463C82.558 31.7798 81.375 31.7798 81.375 32.5463Z" fill="#43435B"/>
<path d="M90.3183 31.485C92.3206 32.671 94.0572 34.2542 95.4206 36.1366C96.7839 38.019 97.745 40.1604 98.2442 42.4281C98.4098 43.1592 99.5573 42.8526 99.4272 42.1097C98.8794 39.6992 97.8462 37.4246 96.3902 35.424C94.9342 33.4233 93.0858 31.7382 90.9571 30.4709C90.8223 30.3943 90.6628 30.3736 90.5129 30.4132C90.3629 30.4528 90.2346 30.5494 90.1555 30.6824C90.0764 30.8154 90.0528 30.974 90.0899 31.1242C90.127 31.2743 90.2218 31.4039 90.3538 31.485H90.3183Z" fill="#43435B"/>
<path d="M95.9021 28.0182C99.4341 30.625 102.213 34.1151 103.958 38.1358C104.266 38.8315 105.283 38.2302 104.975 37.5462C103.135 33.3483 100.213 29.711 96.5054 27.0041C95.8902 26.5442 95.3224 27.5701 95.9021 28.0182Z" fill="#43435B"/>
<path d="M102.905 24.4923C105.667 25.5842 108.169 27.2422 110.247 29.3588C112.326 31.4755 113.935 34.0036 114.972 36.7796C115.232 37.4872 116.379 37.1806 116.155 36.4731C115.049 33.4933 113.32 30.782 111.082 28.5192C108.845 26.2564 106.15 24.4938 103.177 23.3484C102.468 23.0654 102.16 24.2093 102.87 24.5276L102.905 24.4923Z" fill="#43435B"/>
<path d="M109.211 23.0183C113.755 25.3875 117.261 29.3481 119.053 34.1382C119.313 34.8458 120.461 34.5392 120.236 33.8198C118.348 28.7486 114.65 24.5498 109.849 22.0277C109.175 21.674 108.584 22.6881 109.258 23.0536L109.211 23.0183Z" fill="#43435B"/>
<path d="M58.4135 19.9995C58.2415 20.9007 58.2591 21.8277 58.4652 22.7218C58.6713 23.6158 59.0613 24.4575 59.6107 25.1935C60.16 25.9296 60.8566 26.5439 61.6565 26.9976C62.4564 27.4513 63.342 27.7346 64.2574 27.8294C65.0145 27.8294 65.0026 26.6502 64.2574 26.6502C63.5162 26.5672 62.8 26.3328 62.1537 25.9617C61.5074 25.5906 60.9447 25.0907 60.5007 24.4932C60.0567 23.8958 59.741 23.2135 59.5732 22.4891C59.4054 21.7646 59.3892 21.0135 59.5255 20.2825C59.6793 19.5396 58.5436 19.2212 58.3425 19.9641L58.4135 19.9995Z" fill="#43435B"/>
<path d="M65.1448 18.6788C65.1871 19.9087 65.7017 21.0754 66.5823 21.9379C67.463 22.8004 68.6423 23.2927 69.8767 23.3131C70.0335 23.3131 70.184 23.251 70.2949 23.1404C70.4058 23.0299 70.4682 22.8799 70.4682 22.7235C70.4682 22.5672 70.4058 22.4172 70.2949 22.3066C70.184 22.196 70.0335 22.1339 69.8767 22.1339C68.955 22.1167 68.0746 21.7497 67.4151 21.1076C66.7557 20.4656 66.3668 19.5969 66.3277 18.6788C66.3277 18.5225 66.2654 18.3725 66.1545 18.2619C66.0436 18.1514 65.8931 18.0892 65.7363 18.0892C65.5794 18.0892 65.4289 18.1514 65.318 18.2619C65.2071 18.3725 65.1448 18.5225 65.1448 18.6788Z" fill="#43435B"/>
<path d="M70.6101 16.1671C71.3081 16.9454 71.9942 17.7355 72.6803 18.5256C73.189 19.0916 74.0171 18.2543 73.5202 17.6883L71.45 15.3299C70.9413 14.7639 70.1133 15.6011 70.6101 16.1671Z" fill="#43435B"/>
<path d="M73.5437 10.1413L74.7267 11.8983C75.1526 12.5233 76.1818 11.8983 75.7441 11.3087C75.3064 10.7191 74.9396 10.1295 74.5611 9.55166C74.1825 8.97385 73.106 9.55166 73.5319 10.1413H73.5437Z" fill="#43435B"/>
</g>
<defs>
<clipPath id="clip0_905_396">
<rect width="199" height="243" fill="white" transform="translate(0 0.705322)"/>
</clipPath>
</defs>
</svg>
