<svg width="212" height="84" viewBox="0 0 212 84" fill="none" xmlns="http://www.w3.org/2000/svg">
<g id="Logo" clip-path="url(#clip0_366_5930)">
<path id="Vector" fill-rule="evenodd" clip-rule="evenodd" d="M139.718 51.2004C129.828 65.458 108.974 78.1801 92.6366 78.1801C76.2992 78.1801 66.5185 67.3662 65.5674 54.1168H64.4823C62.9429 71.3138 72.2433 83.7868 89.4724 83.7868C106.701 83.7868 129.3 69.5534 140.253 51.2004H139.718ZM119.806 0.0874023C136.431 0.0874023 146.498 12.7686 144.757 30.1891L143.729 30.1551C142.905 16.9321 132.151 6.31708 116.593 6.31708C101.722 6.31708 86.8293 14.938 76.5836 26.3198H75.2438C86.5805 10.9219 103.718 0.0874023 119.806 0.0874023Z" fill="white"/>
<path id="Vector_2" fill-rule="evenodd" clip-rule="evenodd" d="M143.658 35C146.739 35 149.237 37.5077 149.237 40.6C149.237 43.6925 146.739 46.2 143.658 46.2C140.578 46.2 138.079 43.6925 138.079 40.6C138.079 37.5077 140.578 35 143.658 35Z" fill="#FF6E27"/>
<path id="Vector_3" fill-rule="evenodd" clip-rule="evenodd" d="M196.326 35.4226L197.131 30.7859H200.903L201.818 26.6646L208.777 24.7882L207.459 30.7859H212L211.194 35.4226H206.397L205.261 40.7581C204.895 42.4753 204.712 43.5795 204.712 44.0702C204.712 45.4931 205.432 46.2044 206.873 46.2044C207.289 46.2044 207.996 46.0204 208.997 45.6522L208.265 50.0316C206.727 50.2769 205.36 50.3994 204.163 50.3994C202.355 50.3994 200.927 49.9578 199.877 49.0745C198.705 48.0936 198.12 46.6461 198.12 44.7324C198.12 43.9473 198.315 42.6349 198.705 40.7951L199.842 35.4226H196.326ZM181.755 38.5502H189.85C189.85 36.0237 188.776 34.7602 186.627 34.7602C185.309 34.7602 184.197 35.165 183.294 35.9747C182.538 36.6368 182.024 37.4957 181.755 38.5502ZM192.45 44.6591L191.608 49.3324C189.264 50.0435 187.043 50.3994 184.942 50.3994C181.865 50.3994 179.436 49.541 177.653 47.8234C175.97 46.2289 175.127 44.1684 175.127 41.6415C175.127 38.8937 175.97 36.453 177.653 34.3183C179.754 31.6689 182.72 30.3443 186.554 30.3443C189.216 30.3443 191.302 31.0067 192.817 32.3316C194.5 33.7788 195.343 35.9008 195.343 38.6976C195.343 39.679 195.185 40.8809 194.867 42.3036H181.353C181.451 44.7569 183.16 45.9836 186.481 45.9836C188.628 45.9836 190.619 45.5416 192.45 44.6591ZM151.658 49.9578L154.625 35.7902C154.99 34.0244 155.259 32.3562 155.429 30.7859H161.547L161.034 33.9135H161.107C163.232 31.5342 165.685 30.3443 168.469 30.3443C170.324 30.3443 171.776 30.9638 172.827 32.203C173.876 33.4413 174.402 35.0299 174.402 36.9678C174.402 37.9249 174.231 39.2738 173.889 41.0156L172.13 49.9578H165.318L167.149 40.9789C167.442 39.5316 167.589 38.5623 167.589 38.0723C167.589 36.5753 166.735 35.8398 165.025 35.8643C162.487 35.913 160.851 37.6668 160.119 41.1262L158.25 49.9578H151.658ZM121.075 44.0708C121.075 44.5615 121.283 45.0029 121.698 45.3955C122.113 45.7882 122.65 45.9842 123.31 45.9842C124.677 45.9842 125.788 45.5677 126.642 44.7335C127.497 43.8991 128.046 42.8074 128.29 41.4583C128.071 41.409 127.485 41.3723 126.532 41.3477C124.945 41.2991 123.639 41.5315 122.613 42.0468C121.588 42.5621 121.075 43.2371 121.075 44.0708ZM127.411 49.9585L127.704 47.2723L127.631 47.199V47.2723C126.313 49.3578 124.176 50.4001 121.222 50.4001C116.973 50.4001 114.849 48.548 114.849 44.8437C114.849 42.5868 115.875 40.8201 117.926 39.5445C119.806 38.3916 122.284 37.8149 125.36 37.8149C126.215 37.8149 127.399 37.8764 128.912 37.9989C128.962 37.8278 128.986 37.5696 128.986 37.2263C128.986 36.515 128.663 35.9259 128.016 35.4601C127.368 34.9937 126.52 34.7609 125.47 34.7609C123.273 34.7609 121.21 35.2634 119.281 36.2697L119.94 31.4489C122.088 30.7128 124.42 30.345 126.935 30.345C129.401 30.345 131.354 30.8355 132.795 31.817C134.407 32.9454 135.213 34.6257 135.213 36.8583C135.213 37.8887 134.907 39.7283 134.297 42.3778C133.54 45.5677 133.039 48.0944 132.795 49.9585H127.411ZM114.6 44.6962L113.647 49.6642C112.182 50.1548 110.302 50.4001 108.007 50.4001C105.297 50.4001 103.1 49.5417 101.415 47.8245C99.8033 46.1803 98.9979 44.1195 98.9979 41.6421C98.9979 38.453 100.146 35.7727 102.441 33.6016C104.736 31.4302 107.69 30.345 111.303 30.345C113.257 30.345 115.259 30.7743 117.31 31.633L115.882 36.2328C114.392 35.5459 112.976 35.2022 111.633 35.2022C109.9 35.2022 108.508 35.7295 107.458 36.7849C106.359 37.9133 105.81 39.4467 105.81 41.3847C105.81 42.5621 106.225 43.5497 107.055 44.3472C107.885 45.1439 108.984 45.5429 110.351 45.5429C111.816 45.5429 113.232 45.2601 114.6 44.6962ZM88.4567 49.9585L92.4122 30.7866H99.0782L95.1223 49.9585H88.4567ZM77.1472 30.7866H83.2633L82.5308 34.7242H82.6038C83.1902 33.4973 83.9711 32.4915 84.9478 31.7064C86.0466 30.7989 87.2306 30.345 88.5004 30.345C89.5989 30.345 90.5267 30.504 91.2836 30.8234L89.7824 36.6743C89.0987 36.1343 88.0856 35.8648 86.7423 35.8648C84.2033 35.8648 82.5672 37.6186 81.8348 41.127L79.9671 49.9585H73.3746L76.3411 35.7911C76.7073 34.0245 76.9759 32.3568 77.1472 30.7866ZM60.4164 38.551H68.5105C68.5105 36.0244 67.4359 34.7609 65.2876 34.7609C63.9688 34.7609 62.8581 35.1655 61.9545 35.9747C61.1977 36.6375 60.6849 37.4964 60.4164 38.551ZM71.1108 44.6598L70.2685 49.3328C67.9244 50.0443 65.7027 50.4001 63.6029 50.4001C60.5261 50.4001 58.0967 49.5417 56.3142 47.8245C54.63 46.2295 53.7875 44.1688 53.7875 41.6421C53.7875 38.8946 54.63 36.4531 56.3142 34.3188C58.414 31.6694 61.3807 30.345 65.2141 30.345C67.8756 30.345 69.9631 31.0075 71.4768 32.3318C73.1622 33.7797 74.0042 35.9016 74.0042 38.6983C74.0042 39.6797 73.8453 40.8816 73.5276 42.3043H60.0136C60.1111 44.7576 61.8202 45.9842 65.1412 45.9842C67.2896 45.9842 69.2795 45.5429 71.1108 44.6598ZM20.1733 49.9585L23.1397 35.7911C23.5059 34.0245 23.7747 32.3568 23.9458 30.7866H29.8052L29.0729 34.2824L29.1461 34.2456C30.8798 31.6449 33.1263 30.345 35.885 30.345C37.0813 30.345 38.1314 30.6638 39.0348 31.3015C40.0356 32.0129 40.6585 32.9944 40.9026 34.2456C42.6364 31.6449 44.9066 30.345 47.7146 30.345C49.3749 30.345 50.7301 30.7618 51.7799 31.596C53.0254 32.6019 53.6479 34.0864 53.6479 36.0485C53.6479 37.4964 53.5011 38.9314 53.2084 40.3541L51.2308 49.9585H44.6384L46.5429 40.6482C46.7871 39.4467 46.909 38.5143 46.909 37.8519C46.909 36.5269 46.2009 35.8648 44.7847 35.8648C43.5883 35.8648 42.6483 36.478 41.9648 37.705C41.5496 38.4408 41.1835 39.5814 40.8658 41.127L38.9981 49.9585H32.4059L34.3102 40.6482C34.5543 39.4467 34.6765 38.5143 34.6765 37.8519C34.6765 36.5269 33.9684 35.8648 32.5522 35.8648C31.3559 35.8648 30.4157 36.478 29.7322 37.705C29.3171 38.4408 28.951 39.5814 28.6337 41.127L26.7657 49.9585H20.1733ZM6.22613 44.0708C6.22613 44.5615 6.43378 45.0029 6.84886 45.3955C7.26393 45.7882 7.80096 45.9842 8.46017 45.9842C9.82778 45.9842 10.9385 45.5677 11.7931 44.7335C12.6476 43.8991 13.1969 42.8074 13.4413 41.4583C13.2213 41.409 12.6353 41.3723 11.683 41.3477C10.0961 41.2991 8.78998 41.5315 7.76428 42.0468C6.73899 42.5621 6.22613 43.2371 6.22613 44.0708ZM93.0228 29.2215L94.077 23.8H100.359L99.3051 29.2215H93.0228ZM12.5621 49.9585L12.8553 47.2723L12.7821 47.199V47.2723C11.4635 49.3578 9.32722 50.4001 6.3729 50.4001C2.12438 50.4001 0 48.548 0 44.8437C0 42.5868 1.02549 40.8201 3.07627 39.5445C4.95652 38.3916 7.43488 37.8149 10.5112 37.8149C11.3661 37.8149 12.5501 37.8764 14.0638 37.9989C14.1128 37.8278 14.1372 37.5696 14.1372 37.2263C14.1372 36.515 13.8137 35.9259 13.1666 35.4601C12.5195 34.9937 11.6711 34.7609 10.621 34.7609C8.42389 34.7609 6.3606 35.2634 4.43136 36.2697L5.09098 31.4489C7.23933 30.7128 9.57134 30.345 12.0862 30.345C14.5523 30.345 16.5057 30.8355 17.9461 31.817C19.5576 32.9454 20.3633 34.6257 20.3633 36.8583C20.3633 37.8887 20.0579 39.7283 19.4477 42.3778C18.6909 45.5677 18.1904 48.0944 17.9461 49.9585H12.5621Z" fill="white"/>
</g>
<defs>
<clipPath id="clip0_366_5930">
<rect width="212" height="84" fill="white"/>
</clipPath>
</defs>
</svg>
